<svg width="397" height="398" viewBox="0 0 397 398" fill="none" xmlns="http://www.w3.org/2000/svg">
<path d="M370.557 210.107L368.305 210.02L368.604 202.293L370.855 202.38L370.557 210.107Z" fill="#565555"/>
<path d="M379.784 218.44L379.835 218.071L365.817 216.246C363.469 215.951 362.015 215.928 361.457 216.177C360.979 216.394 360.588 217.202 360.284 218.6C360.228 218.766 360.087 218.834 359.862 218.803C359.595 218.765 359.473 218.661 359.497 218.49C359.551 218.181 359.623 217.743 359.713 217.178C359.915 216.038 360.05 215.228 360.118 214.746C360.17 214.372 360.313 213.115 360.546 210.976C360.576 210.762 360.724 210.673 360.992 210.711C361.227 210.744 361.341 210.869 361.332 211.086C361.283 212.377 361.461 213.177 361.865 213.484C362.438 213.913 363.83 214.299 366.041 214.64L378.168 216.529C379.941 216.809 381.093 216.801 381.625 216.504C382.17 216.198 382.617 215.344 382.965 213.941C383.017 213.73 383.16 213.641 383.395 213.674C383.77 213.726 383.942 213.859 383.913 214.074C383.69 215.199 383.517 216.206 383.393 217.095C383.246 218.144 383.118 219.14 383.008 220.085C381.779 220.525 380.335 221.175 378.677 222.034L366.759 228.146C364.563 229.258 362.898 230.089 361.762 230.64L365.808 231.205L375.366 232.506C377.592 232.817 379.004 232.823 379.602 232.524C380.046 232.314 380.425 231.515 380.739 230.13C380.787 229.94 380.929 229.861 381.164 229.894C381.517 229.944 381.681 230.065 381.654 230.257C381.319 232.033 381.105 233.252 381.012 233.916C380.887 234.815 380.758 236.052 380.625 237.627C380.595 237.841 380.404 237.923 380.051 237.874C379.847 237.845 379.734 237.721 379.71 237.499C379.77 236.285 379.612 235.505 379.235 235.157C378.78 234.745 377.42 234.364 375.155 234.015L363.592 232.189C362.843 232.084 362.291 232.012 361.936 231.974C360.951 231.836 359.621 231.672 357.945 231.482C357.507 230.483 357.291 229.956 357.298 229.902C357.309 229.828 357.373 229.76 357.49 229.7C359.325 228.909 361.388 227.925 363.68 226.75L379.784 218.44Z" fill="#565555"/>
<path d="M370.129 243.325C369.601 245.398 368.414 246.908 366.567 247.854C364.885 248.719 362.997 248.885 360.903 248.352C358.536 247.749 356.81 246.512 355.725 244.64C354.794 243.043 354.563 241.322 355.033 239.479C355.567 237.384 356.771 235.873 358.647 234.946C360.318 234.122 362.174 233.971 364.216 234.491C366.573 235.091 368.304 236.352 369.409 238.273C370.335 239.892 370.575 241.576 370.129 243.325ZM369.171 243.081C369.513 241.74 369.155 240.539 368.098 239.478C367.12 238.504 365.63 237.762 363.63 237.253C361.274 236.652 359.43 236.645 358.098 237.232C357.008 237.701 356.311 238.533 356.007 239.727C355.663 241.078 356.016 242.294 357.068 243.376C358.041 244.372 359.517 245.121 361.497 245.626C363.885 246.234 365.753 246.23 367.104 245.615C368.178 245.119 368.867 244.275 369.171 243.081Z" fill="#565555"/>
<path d="M353.252 256.968C353.579 257.237 354.308 257.856 355.438 258.823L358.887 261.848C359.959 262.817 360.749 263.394 361.256 263.58C361.581 263.699 361.858 263.651 362.086 263.436C362.287 263.233 362.547 262.793 362.864 262.115C362.958 261.954 363.111 261.912 363.324 261.99C363.558 262.076 363.645 262.2 363.585 262.362C363.102 263.555 362.741 264.476 362.503 265.125C362.287 265.714 362.01 266.533 361.671 267.583C361.596 267.786 361.443 267.844 361.209 267.759C360.986 267.677 360.901 267.531 360.956 267.32C361.118 266.689 361.076 266.127 360.831 265.635C360.534 265.065 359.737 264.209 358.441 263.066L353.58 258.711C352.305 257.541 351.245 256.635 350.399 255.991C350.343 255.233 350.333 254.804 350.371 254.702C350.412 254.591 350.488 254.538 350.601 254.545C351.878 254.61 353.385 254.628 355.123 254.597L361.56 254.558C363.455 254.539 364.667 254.42 365.197 254.199C365.585 254.019 365.952 253.538 366.296 252.755C366.386 252.604 366.538 252.567 366.751 252.645C366.984 252.731 367.071 252.855 367.012 253.017C366.48 254.342 366.075 255.384 365.796 256.145C365.491 256.977 365.105 258.091 364.64 259.486C364.58 259.648 364.434 259.686 364.201 259.601C363.988 259.523 363.896 259.397 363.925 259.223C364.302 258.038 364.247 257.356 363.76 257.177C363.354 257.029 362.327 256.957 360.679 256.963L356.072 257C355.036 257 354.096 256.989 353.252 256.968Z" fill="#565555"/>
<path d="M354.767 270.137C356.025 270.713 356.881 271.011 357.336 271.029C357.82 271.037 358.156 270.835 358.346 270.422L358.8 269.275C358.872 269.118 359.041 269.1 359.306 269.222C359.493 269.308 359.569 269.491 359.535 269.773C359.205 271.452 359.005 272.977 358.935 274.348C358.827 274.584 358.679 274.659 358.493 274.574C356.613 273.617 354.902 272.784 353.36 272.077L349.588 270.347C347.731 269.496 346.668 269.08 346.397 269.098C346.065 269.124 345.618 269.644 345.057 270.659C344.956 270.803 344.812 270.832 344.625 270.747C344.36 270.625 344.263 270.486 344.335 270.328C344.929 269.138 345.397 268.17 345.739 267.423C346.144 266.539 346.595 265.503 347.092 264.316C347.164 264.159 347.333 264.141 347.598 264.263C347.785 264.349 347.857 264.477 347.814 264.647C347.494 265.606 347.411 266.24 347.566 266.549C347.71 266.805 348.711 267.359 350.567 268.211L354.767 270.137ZM367.676 277.144C367.468 277.596 367.087 277.909 366.532 278.082C366.049 278.229 365.615 278.215 365.232 278.039C364.731 277.809 364.397 277.424 364.229 276.883C364.097 276.418 364.121 275.99 364.301 275.597C364.518 275.125 364.893 274.798 365.429 274.616C365.897 274.45 366.347 274.466 366.78 274.664C367.232 274.872 367.542 275.258 367.711 275.823C367.872 276.301 367.86 276.741 367.676 277.144Z" fill="#565555"/>
<path d="M352.786 286.487C352.134 287.658 351.315 288.63 350.327 289.404C349.616 289.949 349.011 290.082 348.51 289.803C347.915 289.472 347.525 289.106 347.339 288.706C347.179 288.394 347.17 288.111 347.312 287.856C347.496 287.526 348.173 287.309 349.343 287.206L349.701 287.163C350.779 287.071 351.531 286.642 351.956 285.877C352.587 284.744 352.508 283.519 351.72 282.202C351.003 280.999 349.8 279.928 348.11 278.987C346.391 278.031 344.725 277.735 343.113 278.099C341.813 278.39 340.887 279.031 340.336 280.023C339.779 281.024 339.504 281.928 339.512 282.737C339.526 283.4 339.727 284.161 340.115 285.02C340.167 285.148 340.178 285.241 340.146 285.297C340.073 285.429 339.957 285.526 339.8 285.587C339.666 285.649 339.557 285.656 339.472 285.609C339.444 285.593 339.398 285.542 339.334 285.457C338.065 283.181 338.022 280.98 339.204 278.855C340.245 276.985 341.78 275.848 343.811 275.445C345.626 275.094 347.459 275.434 349.31 276.464C351.463 277.662 352.827 279.312 353.402 281.412C353.884 283.19 353.679 284.881 352.786 286.487Z" fill="#565555"/>
<path d="M341.153 293.333C340.763 292.986 340.412 292.704 340.1 292.49C338.481 291.374 336.827 290.936 335.138 291.177C333.762 291.384 332.737 291.977 332.062 292.956C330.977 294.531 330.762 296.214 331.419 298.005C331.459 298.098 331.452 298.185 331.397 298.265C331.323 298.372 331.2 298.445 331.029 298.484C330.89 298.533 330.785 298.533 330.714 298.484C330.616 298.417 330.537 298.283 330.478 298.085C329.556 295.783 329.761 293.667 331.092 291.736C332.361 289.894 334.024 288.861 336.081 288.638C337.919 288.447 339.718 288.959 341.48 290.173C343.465 291.54 344.654 293.291 345.047 295.425C345.393 297.265 345.033 298.959 343.966 300.508C342.967 301.959 341.622 302.797 339.93 303.023C338.489 303.211 337.087 302.901 335.727 302.095C335.593 302.003 335.513 301.882 335.485 301.732C335.457 301.581 335.477 301.457 335.545 301.359C336.867 299.554 338.129 297.779 339.331 296.035C340.171 294.816 340.779 293.915 341.153 293.333ZM342.004 294.156C341.618 294.677 341.094 295.419 340.432 296.38C339.58 297.617 338.803 298.821 338.102 299.991C337.979 300.169 338.038 300.341 338.278 300.506C339.318 301.092 340.307 301.314 341.245 301.172C342.074 301.035 342.719 300.633 343.179 299.965C343.743 299.147 343.897 298.19 343.641 297.095C343.419 296.102 342.874 295.122 342.004 294.156Z" fill="#565555"/>
<path d="M325.488 318.009L321.413 314.108C320.094 312.845 319.255 312.072 318.897 311.789C318.586 311.536 318.3 311.382 318.039 311.326C317.563 311.245 316.737 311.725 315.559 312.768C315.387 312.917 315.207 312.902 315.019 312.722C314.809 312.52 314.782 312.338 314.939 312.174C316.204 310.977 317.267 309.929 318.126 309.031C318.971 308.149 319.904 307.112 320.925 305.92C321.082 305.757 321.266 305.775 321.476 305.977C321.664 306.157 321.687 306.336 321.545 306.515C320.666 307.543 320.3 308.307 320.449 308.809C320.621 309.348 321.578 310.45 323.319 312.117L331.726 320.166C332.983 321.369 333.806 322.119 334.195 322.417C334.482 322.632 334.76 322.771 335.029 322.834C335.513 322.908 336.335 322.416 337.497 321.359C337.632 321.249 337.785 321.276 337.957 321.44C338.215 321.687 338.284 321.873 338.164 321.998C336.532 323.547 334.553 325.535 332.229 327.963C330.092 330.196 328.251 332.197 326.707 333.965C325.813 333.243 324.402 332.185 322.476 330.79L322.406 330.723C322.265 330.588 322.33 330.38 322.599 330.099C322.696 329.998 322.829 329.983 322.999 330.056C324.366 330.722 325.618 330.97 326.753 330.8C327.362 330.71 327.968 330.452 328.571 330.026C329.172 329.585 329.978 328.838 330.987 327.784C332.1 326.621 332.574 325.743 332.408 325.15C332.291 324.694 331.429 323.696 329.821 322.157L326.355 318.838C326.084 319.074 325.576 319.582 324.828 320.362C323.132 322.134 322.245 323.35 322.168 324.009C322.113 324.645 322.434 325.371 323.132 326.189C323.251 326.347 323.216 326.524 323.029 326.719C322.813 326.945 322.634 326.991 322.493 326.857C321.469 325.817 320.7 325.05 320.185 324.557C319.474 323.877 318.561 323.033 317.446 322.025C317.29 321.876 317.321 321.688 317.537 321.461C317.732 321.258 317.922 321.231 318.109 321.38C319.089 322.169 319.895 322.492 320.526 322.348C321.279 322.171 322.448 321.255 324.032 319.6C324.555 319.053 325.041 318.523 325.488 318.009Z" fill="#565555"/>
<path d="M311.018 331.591C311.436 334.315 311.127 336.119 310.09 337.002C309.662 337.366 309.25 337.582 308.854 337.65C308.512 337.7 308.265 337.634 308.111 337.453C307.767 337.05 307.602 336.53 307.614 335.895C307.625 335.375 307.75 335.013 307.989 334.81C308.162 334.662 308.463 334.533 308.894 334.422C309.331 334.319 309.616 334.212 309.748 334.1C310.11 333.791 310.259 333.125 310.195 332.1C310.134 331.045 309.775 330.131 309.116 329.357L306.625 326.432C305.343 324.926 304.553 324.116 304.255 324C303.905 323.872 303.274 324.147 302.361 324.825C302.208 324.913 302.062 324.874 301.922 324.71C301.767 324.529 301.756 324.382 301.888 324.27C302.928 323.441 303.777 322.746 304.435 322.186C305.143 321.583 305.989 320.834 306.973 319.94C307.121 319.814 307.272 319.841 307.426 320.022C307.566 320.187 307.573 320.344 307.446 320.495C306.979 320.964 306.687 321.304 306.57 321.517C306.488 321.687 306.461 321.88 306.489 322.097C306.528 322.476 307.178 323.406 308.439 324.887L311.445 328.417C312.335 329.462 312.991 330.082 313.412 330.276C313.894 330.476 314.275 330.457 314.555 330.218L315.414 329.402C315.57 329.269 315.736 329.305 315.911 329.511C316.058 329.683 316.057 329.89 315.908 330.131C314.934 331.372 314.122 332.652 313.472 333.973C313.275 334.141 313.113 334.151 312.987 334.003C312.186 332.996 311.53 332.192 311.018 331.591Z" fill="#565555"/>
<path d="M300.709 344.096C298.965 345.336 297.083 345.719 295.062 345.246C293.22 344.818 291.673 343.724 290.421 341.962C289.006 339.971 288.49 337.911 288.873 335.783C289.196 333.962 290.133 332.501 291.683 331.399C293.445 330.146 295.341 329.773 297.372 330.279C299.178 330.732 300.692 331.817 301.913 333.535C303.322 335.517 303.827 337.598 303.427 339.778C303.086 341.611 302.18 343.051 300.709 344.096ZM300.136 343.29C301.264 342.489 301.768 341.342 301.648 339.849C301.532 338.473 300.876 336.944 299.68 335.261C298.271 333.279 296.869 332.081 295.474 331.667C294.339 331.321 293.27 331.504 292.266 332.218C291.129 333.025 290.612 334.182 290.714 335.687C290.813 337.076 291.454 338.602 292.637 340.267C294.065 342.276 295.492 343.482 296.92 343.886C298.06 344.203 299.132 344.004 300.136 343.29Z" fill="#565555"/>
<path d="M285.542 350.174C285.393 352.595 284.416 354.307 282.613 355.311C281.338 356.02 280.1 356.196 278.899 355.838C277.786 355.505 276.911 354.767 276.275 353.624L274.544 350.413L273.528 348.586C272.571 346.867 271.942 345.925 271.639 345.759C271.346 345.588 270.734 345.7 269.804 346.094C269.618 346.16 269.472 346.099 269.367 345.91C269.252 345.703 269.279 345.551 269.449 345.457C270.594 344.869 271.516 344.381 272.214 343.992C272.951 343.582 273.908 343.025 275.087 342.32C275.257 342.225 275.4 342.282 275.515 342.489C275.62 342.678 275.596 342.834 275.441 342.957C274.674 343.446 274.276 343.896 274.246 344.309C274.218 344.658 274.682 345.693 275.638 347.411L278.105 351.845C278.484 352.525 278.9 353.017 279.353 353.321C280.396 354.039 281.503 354.073 282.674 353.421C283.826 352.78 284.502 351.693 284.7 350.16C284.804 349.348 284.602 348.484 284.092 347.568L282.027 343.856C281.049 342.1 280.434 341.15 280.181 341.006C279.973 340.899 279.747 340.87 279.502 340.92C279.263 340.979 278.844 341.138 278.246 341.396C278.079 341.452 277.943 341.385 277.838 341.197C277.723 340.989 277.74 340.843 277.892 340.759C279.074 340.15 279.996 339.662 280.657 339.294C281.431 338.863 282.389 338.306 283.529 337.622C283.68 337.538 283.814 337.599 283.929 337.807C284.035 337.996 284.019 338.147 283.884 338.259C283.128 338.767 282.729 339.217 282.688 339.611C282.666 339.97 283.13 341.004 284.081 342.713L286.335 346.765C287.008 347.973 287.52 348.715 287.87 348.99C288.285 349.291 288.672 349.342 289.031 349.142L290.005 348.526C290.185 348.426 290.356 348.522 290.519 348.815C290.613 348.985 290.546 349.165 290.317 349.354C289.26 350.276 288.231 351.362 287.232 352.61C287.024 352.726 286.873 352.699 286.778 352.529C286.238 351.469 285.826 350.684 285.542 350.174Z" fill="#565555"/>
<path d="M270.635 359.24L272.509 358.387C272.707 358.301 272.864 358.391 272.981 358.659C273.093 358.916 273.059 359.108 272.878 359.234C272.058 359.84 271.512 360.561 271.24 361.399C270.98 362.208 270.877 363.079 270.93 364.011C270.948 364.215 270.838 364.369 270.6 364.473C270.333 364.589 270.154 364.544 270.063 364.336C269.474 362.824 269.081 361.84 268.882 361.384C267.743 361.881 266.369 362.504 264.762 363.252C264.643 363.304 264.558 363.271 264.506 363.152L264.412 362.167C264.402 362.006 264.47 361.894 264.619 361.829C265.378 361.569 266.659 361.045 268.462 360.259L265.267 352.774C264.623 351.298 263.977 350.371 263.329 349.994C262.704 349.641 262.055 349.612 261.381 349.906C260.648 350.226 260.13 350.782 259.827 351.574C259.794 351.66 259.747 351.715 259.688 351.741C259.579 351.789 259.442 351.772 259.277 351.691C259.14 351.621 259.052 351.541 259.013 351.452C258.987 351.392 258.991 351.32 259.025 351.235C259.534 349.727 260.364 348.723 261.513 348.221C262.771 347.673 263.868 347.607 264.804 348.024C265.711 348.453 266.487 349.406 267.13 350.882L268.873 355.039L270.635 359.24Z" fill="#565555"/>
<path d="M251.481 363.527L250.737 361.4L258.036 358.848L258.78 360.975L251.481 363.527Z" fill="#565555"/>
<path d="M230.532 358.516C233.57 357.877 236.242 357.268 238.548 356.69C241.127 356.044 243.874 355.293 246.791 354.44C246.959 354.398 247.078 354.518 247.149 354.801C247.21 355.042 247.16 355.199 247 355.273C246.172 355.57 245.615 355.815 245.33 356.009C245.104 356.177 244.945 356.384 244.85 356.631C244.685 357.084 244.908 358.527 245.518 360.959L248.348 372.249C248.769 373.927 249.064 374.994 249.235 375.453C249.366 375.799 249.534 376.069 249.739 376.263C250.098 376.585 251.009 376.618 252.472 376.363C252.665 376.337 252.791 376.439 252.849 376.669C252.936 377.015 252.885 377.212 252.696 377.259C250.51 377.696 247.819 378.315 244.622 379.117C241.666 379.858 239.074 380.563 236.846 381.233C235.896 378.597 235.286 376.945 235.018 376.276L234.995 376.182C234.948 375.993 235.097 375.856 235.443 375.769C235.558 375.74 235.658 375.782 235.742 375.895C236.568 377.192 237.522 378.083 238.602 378.57C239.546 379.002 241.244 378.91 243.697 378.295C245.228 377.912 246.102 377.42 246.319 376.819C246.463 376.416 246.353 375.49 245.99 374.044L244.563 368.352C244.191 368.423 243.502 368.584 242.496 368.837C240.189 369.415 238.828 369.984 238.412 370.546C237.966 371.125 237.814 371.893 237.953 372.85C237.98 373.044 237.888 373.167 237.678 373.22C237.353 373.301 237.167 373.248 237.12 373.059C236.794 371.581 236.551 370.522 236.39 369.883C236.164 368.981 235.841 367.781 235.421 366.282C235.373 366.093 235.512 365.958 235.837 365.877C236.047 365.824 236.188 365.9 236.262 366.104C236.653 367.265 237.199 367.975 237.899 368.234C238.568 368.501 240.013 368.356 242.235 367.799C242.906 367.631 243.588 367.437 244.279 367.219L242.876 361.622C242.348 359.515 241.875 358.274 241.458 357.899C241.143 357.622 240.74 357.478 240.247 357.467C239.757 357.468 239.019 357.592 238.034 357.839C236.461 358.233 235.262 358.65 234.437 359.091C233.737 359.456 233.146 359.922 232.665 360.488C231.963 361.333 231.43 362.608 231.067 364.315C231.041 364.477 230.981 364.571 230.886 364.594C230.477 364.697 230.243 364.627 230.182 364.386L230.174 364.221C230.139 362.436 230.258 360.534 230.532 358.516Z" fill="#565555"/>
<path d="M225.52 371.381C224.499 373.581 222.966 374.819 220.92 375.097C219.474 375.293 218.257 375.005 217.269 374.234C216.354 373.519 215.809 372.513 215.633 371.217L215.191 367.596L214.91 365.524C214.645 363.575 214.403 362.468 214.181 362.204C213.971 361.938 213.36 361.819 212.35 361.847C212.153 361.841 212.04 361.731 212.01 361.517C211.979 361.281 212.059 361.15 212.252 361.124C213.532 360.994 214.568 360.875 215.361 360.768C216.196 360.654 217.291 360.484 218.645 360.257C218.838 360.23 218.95 360.335 218.982 360.571C219.011 360.785 218.932 360.921 218.743 360.979C217.851 361.155 217.315 361.429 217.137 361.803C216.984 362.118 217.039 363.25 217.303 365.199L217.985 370.227C218.09 370.998 218.298 371.608 218.61 372.057C219.319 373.105 220.338 373.54 221.666 373.36C222.972 373.182 223.997 372.416 224.741 371.061C225.134 370.343 225.26 369.464 225.119 368.425L224.548 364.216C224.278 362.224 224.051 361.116 223.868 360.89C223.713 360.714 223.513 360.605 223.267 360.562C223.023 360.53 222.575 360.525 221.924 360.548C221.748 360.539 221.646 360.428 221.617 360.213C221.585 359.978 221.654 359.848 221.826 359.825C223.149 359.689 224.185 359.57 224.935 359.469C225.813 359.35 226.908 359.179 228.219 358.958C228.39 358.935 228.492 359.041 228.524 359.276C228.553 359.491 228.484 359.625 228.317 359.681C227.428 359.878 226.892 360.152 226.711 360.504C226.559 360.83 226.614 361.962 226.877 363.9L227.501 368.495C227.687 369.865 227.893 370.743 228.119 371.126C228.396 371.558 228.738 371.746 229.145 371.691L230.277 371.472C230.48 371.444 230.604 371.596 230.649 371.928C230.676 372.121 230.548 372.264 230.266 372.357C228.945 372.83 227.592 373.466 226.206 374.265C225.97 374.297 225.839 374.217 225.813 374.024C225.696 372.84 225.599 371.959 225.52 371.381Z" fill="#565555"/>
<path d="M198.775 374.926L198.912 380.842C198.946 382.311 199.043 383.217 199.202 383.559C199.418 383.997 199.747 384.211 200.19 384.201L201.371 384.109C201.533 384.105 201.617 384.211 201.622 384.427C201.629 384.73 201.52 384.911 201.294 384.97C200.025 385.237 198.528 385.715 196.803 386.404C196.587 386.409 196.477 386.335 196.474 386.184C196.486 382.995 196.469 380.379 196.422 378.337L196.142 366.263C196.096 364.286 196.006 363.18 195.871 362.945C195.701 362.625 195.276 362.457 194.594 362.44L193.994 362.421C193.799 362.426 193.699 362.309 193.694 362.072C193.688 361.812 193.782 361.664 193.975 361.627C195.388 361.486 196.816 361.275 198.258 360.993C198.431 360.989 198.519 361.09 198.524 361.295C198.509 362.528 198.505 363.268 198.511 363.517C199.021 362.672 199.703 362.013 200.557 361.54C201.293 361.123 202.039 360.905 202.796 360.888C205.043 360.836 206.811 361.584 208.101 363.132C209.235 364.479 209.827 366.244 209.878 368.426C209.937 370.987 209.217 373.019 207.717 374.524C206.438 375.797 204.821 376.456 202.865 376.502C201.266 376.539 199.903 376.013 198.775 374.926ZM202.744 375.483C204.171 375.45 205.289 374.743 206.101 373.362C206.829 372.134 207.17 370.548 207.125 368.603C207.078 366.54 206.549 364.936 205.538 363.792C204.684 362.849 203.652 362.392 202.442 362.42C201.081 362.452 199.986 363.034 199.158 364.167C198.749 364.706 198.555 365.407 198.575 366.272L198.7 371.685C198.717 372.441 198.944 373.101 199.378 373.664C200.337 374.906 201.459 375.513 202.744 375.483Z" fill="#565555"/>
<path d="M161.077 361.366L159.423 364.833L154.919 374.118C154.25 375.521 153.852 376.563 153.725 377.243C153.612 377.848 153.715 378.296 154.034 378.587C154.345 378.865 154.967 379.129 155.898 379.38C156.085 379.437 156.157 379.582 156.114 379.816C156.048 380.167 155.92 380.324 155.728 380.288C155.465 380.228 155.032 380.131 154.431 379.996C153.102 379.693 152.193 379.496 151.705 379.405C151.078 379.288 150.024 379.135 148.542 378.946C148.35 378.91 148.288 378.717 148.353 378.367C148.397 378.133 148.516 378.023 148.711 378.038C149.827 378.125 150.612 377.986 151.065 377.62C151.417 377.323 152.171 376.056 153.325 373.82L158.926 362.993C160.227 360.498 161.133 358.65 161.644 357.448C162.599 357.219 163.092 357.108 163.124 357.114C163.241 357.136 163.307 357.225 163.322 357.382C163.521 359.904 163.729 362.087 163.946 363.93L164.954 372.661C164.982 373.095 165.075 374.102 165.23 375.681C165.315 375.521 165.791 374.653 166.657 373.078L170.963 365.208C172.576 362.167 173.538 360.34 173.85 359.728C174.752 359.489 175.246 359.378 175.331 359.394C175.448 359.416 175.51 359.494 175.518 359.627C175.614 361.822 175.793 364.01 176.057 366.192L177.282 378.262C177.523 380.681 177.795 382.167 178.099 382.719C178.274 383.015 178.502 383.239 178.781 383.39C179.069 383.554 179.548 383.731 180.216 383.922C180.403 383.979 180.475 384.124 180.431 384.358C180.365 384.709 180.237 384.866 180.046 384.83C178.288 384.414 176.989 384.127 176.15 383.971C174.832 383.725 173.321 383.486 171.616 383.256C171.446 383.224 171.394 383.033 171.459 382.682C171.503 382.449 171.612 382.337 171.786 382.347C172.985 382.462 173.759 382.436 174.109 382.27C174.372 382.154 174.548 381.863 174.635 381.395C174.754 380.758 174.723 379.543 174.541 377.75L173.532 367.436C173.428 366.405 173.313 365.135 173.188 363.628C172.568 364.71 171.955 365.811 171.351 366.929L167.569 374.023C167.237 374.621 166.819 375.389 166.313 376.329C165.965 376.956 165.7 377.434 165.518 377.763C165.676 379.211 165.865 380.115 166.083 380.474C166.434 381.012 167.15 381.416 168.232 381.684C168.419 381.741 168.491 381.886 168.448 382.12C168.382 382.47 168.254 382.628 168.062 382.592C166.347 382.184 165.016 381.891 164.071 381.715C163.168 381.546 161.885 381.35 160.222 381.128C160.01 381.088 159.936 380.893 160.002 380.542C160.045 380.309 160.181 380.202 160.408 380.222C161.325 380.317 161.965 380.271 162.33 380.087C162.622 379.932 162.809 379.637 162.891 379.202C162.986 378.692 162.926 377.482 162.711 375.573L161.517 365.192C161.425 364.449 161.335 363.662 161.248 362.833C161.16 362.069 161.103 361.58 161.077 361.366Z" fill="#565555"/>
<path d="M146.395 362.044C146.624 361.574 146.8 361.16 146.922 360.802C147.557 358.941 147.53 357.23 146.84 355.67C146.269 354.402 145.42 353.575 144.295 353.191C142.485 352.573 140.806 352.823 139.26 353.94C139.181 354.004 139.096 354.021 139.004 353.989C138.881 353.947 138.778 353.849 138.693 353.695C138.609 353.575 138.58 353.474 138.608 353.392C138.647 353.279 138.753 353.167 138.928 353.056C140.894 351.545 142.987 351.169 145.206 351.926C147.323 352.649 148.768 353.97 149.541 355.889C150.222 357.607 150.217 359.478 149.526 361.503C148.748 363.784 147.384 365.402 145.436 366.359C143.759 367.191 142.031 367.304 140.251 366.696C138.584 366.127 137.412 365.06 136.737 363.493C136.165 362.156 136.083 360.723 136.491 359.195C136.543 359.042 136.638 358.931 136.775 358.864C136.912 358.797 137.037 358.782 137.149 358.82C139.246 359.604 141.296 360.338 143.301 361.023C144.702 361.501 145.733 361.841 146.395 362.044ZM145.834 363.086C145.227 362.856 144.372 362.553 143.267 362.176C141.845 361.691 140.476 361.269 139.159 360.911C138.955 360.841 138.805 360.944 138.711 361.221C138.43 362.381 138.484 363.393 138.874 364.257C139.231 365.018 139.793 365.529 140.56 365.791C141.501 366.112 142.464 366.001 143.449 365.458C144.344 364.976 145.139 364.185 145.834 363.086Z" fill="#565555"/>
<path d="M128.22 359.267C126.395 360.304 124.712 360.465 123.172 359.752C121.123 358.803 119.862 357.386 119.389 355.499C118.957 353.81 119.217 351.936 120.171 349.877C121.234 347.582 122.763 346.081 124.758 345.373C126.476 344.775 128.222 344.887 129.997 345.709C131.39 346.354 132.427 347.483 133.109 349.097C133.161 349.217 133.246 349.304 133.363 349.358C133.481 349.413 133.597 349.419 133.712 349.377L134.956 348.774C135.195 348.67 135.446 348.679 135.711 348.802C135.888 348.884 135.924 349.037 135.819 349.263C134.783 351.141 133.74 353.213 132.691 355.478L127.595 366.481C127 367.766 126.678 368.617 126.627 369.034C126.588 369.504 126.76 369.828 127.142 370.005L128.228 370.401C128.375 370.469 128.38 370.65 128.244 370.944C128.158 371.13 127.988 371.201 127.735 371.155C126.376 370.824 124.871 370.615 123.22 370.529C123.004 370.429 122.935 370.296 123.012 370.129C124.218 367.782 125.364 365.436 126.449 363.092L128.22 359.267ZM131.272 352.677C131.808 351.52 132.013 350.603 131.886 349.925C131.632 348.366 130.881 347.298 129.636 346.721C128.391 346.144 127.097 346.289 125.754 347.156C124.526 347.957 123.507 349.23 122.699 350.976C121.845 352.82 121.622 354.473 122.028 355.935C122.374 357.143 123.091 358 124.179 358.504C125.376 359.058 126.635 359.027 127.956 358.412C128.518 358.149 128.979 357.63 129.338 356.855L131.272 352.677Z" fill="#565555"/>
<path d="M99.5071 327.941C101.987 329.807 104.203 331.419 106.156 332.775C108.34 334.291 110.713 335.867 113.275 337.501C113.417 337.6 113.405 337.769 113.239 338.009C113.097 338.213 112.946 338.279 112.785 338.207C112.017 337.779 111.466 337.521 111.131 337.434C110.857 337.374 110.596 337.39 110.348 337.482C109.898 337.656 108.958 338.773 107.528 340.832L100.889 350.393C99.9029 351.813 99.2932 352.738 99.0602 353.169C98.8861 353.495 98.7934 353.799 98.7821 354.081C98.7759 354.563 99.3501 355.271 100.505 356.205C100.652 356.333 100.658 356.495 100.522 356.691C100.319 356.984 100.137 357.074 99.9776 356.964C98.2106 355.605 95.9733 353.986 93.2659 352.106C90.7626 350.367 88.5258 348.88 86.5556 347.643C87.9152 345.193 88.7585 343.647 89.0854 343.005L89.1409 342.926C89.2518 342.766 89.4538 342.788 89.7467 342.991C89.8444 343.059 89.8784 343.161 89.8488 343.299C89.4161 344.775 89.3719 346.079 89.7161 347.213C90.012 348.208 91.1986 349.427 93.2758 350.869C94.5718 351.769 95.5174 352.103 96.1123 351.872C96.5111 351.714 97.1357 351.023 97.9864 349.798L101.334 344.978C101.035 344.744 100.46 344.332 99.6077 343.74C97.6548 342.384 96.3301 341.734 95.6335 341.79C94.9041 341.836 94.2252 342.226 93.5967 342.961C93.4679 343.108 93.3148 343.12 93.1373 342.997C92.8621 342.806 92.78 342.63 92.8909 342.471C93.7894 341.252 94.4267 340.373 94.8027 339.831C95.3328 339.068 96.024 338.035 96.8761 336.732C96.987 336.572 97.1801 336.587 97.4553 336.779C97.6328 336.902 97.6688 337.058 97.5633 337.248C96.9467 338.307 96.7711 339.185 97.0367 339.882C97.2756 340.562 98.3361 341.554 100.218 342.861C100.786 343.256 101.38 343.642 101.999 344.019L105.291 339.279C106.53 337.495 107.153 336.322 107.161 335.762C107.163 335.342 107.006 334.944 106.689 334.566C106.366 334.197 105.788 333.723 104.953 333.143C103.622 332.219 102.518 331.591 101.643 331.259C100.908 330.973 100.169 330.834 99.4251 330.844C98.3273 330.871 97.0164 331.309 95.4923 332.159C95.3527 332.246 95.243 332.262 95.1631 332.207C94.8169 331.966 94.7147 331.744 94.8565 331.54L94.9756 331.425C96.2965 330.224 97.807 329.063 99.5071 327.941Z" fill="#565555"/>
<path d="M84.9654 331.258C82.6282 331.906 80.6911 331.541 79.1542 330.163C78.0678 329.189 77.4982 328.076 77.4451 326.824C77.3971 325.663 77.8096 324.596 78.6825 323.622L81.1535 320.939L82.5494 319.382C83.8624 317.917 84.5479 317.015 84.6059 316.675C84.6719 316.342 84.3668 315.8 83.6906 315.049C83.5674 314.895 83.5779 314.737 83.7222 314.576C83.8809 314.399 84.0327 314.376 84.1776 314.506C85.1063 315.396 85.8684 316.109 86.4639 316.643C87.0915 317.205 87.9308 317.929 88.9816 318.813C89.1264 318.942 89.1195 319.096 88.9608 319.273C88.8165 319.434 88.6611 319.461 88.4946 319.356C87.7826 318.79 87.2267 318.56 86.8268 318.666C86.4872 318.754 85.6609 319.53 84.3479 320.994L80.9608 324.772C80.4414 325.351 80.1119 325.905 79.9724 326.433C79.6333 327.653 79.9627 328.711 80.9605 329.605C81.9422 330.485 83.1899 330.769 84.7035 330.457C85.5057 330.291 86.2567 329.817 86.9565 329.037L89.7917 325.874C91.1335 324.378 91.8311 323.486 91.8843 323.2C91.9176 322.969 91.871 322.746 91.7445 322.531C91.6107 322.324 91.3241 321.98 90.8845 321.498C90.7774 321.359 90.796 321.209 90.9403 321.048C91.099 320.871 91.2428 320.84 91.3715 320.955C92.3324 321.875 93.0945 322.587 93.6578 323.092C94.3176 323.684 95.1569 324.407 96.1755 325.262C96.3043 325.378 96.2893 325.524 96.1306 325.701C95.9863 325.862 95.8389 325.897 95.6886 325.805C94.9621 325.256 94.4062 325.026 94.0208 325.116C93.6739 325.211 92.8476 325.987 91.5419 327.444L88.447 330.896C87.5235 331.926 86.9891 332.651 86.8438 333.073C86.6945 333.563 86.7727 333.945 87.0785 334.219L87.9788 334.939C88.1317 335.076 88.0963 335.27 87.8727 335.519C87.7428 335.664 87.5512 335.659 87.2979 335.504C86.0811 334.805 84.7196 334.187 83.2131 333.649C83.0361 333.491 83.0125 333.339 83.1424 333.194C83.9681 332.338 84.5758 331.692 84.9654 331.258Z" fill="#565555"/>
<path d="M80.2209 310.41C80.5905 311.21 80.7355 311.85 80.6558 312.327C80.5804 312.729 80.3414 313.11 79.9391 313.471C79.062 314.257 77.6073 314.197 75.5751 313.29C76.6028 315.634 76.2959 317.543 74.6543 319.014C73.5197 320.031 72.1534 320.385 70.5555 320.076C69.2225 319.82 68.0726 319.153 67.1059 318.074C66.4494 317.342 65.956 316.427 65.6255 315.33C64.3991 313.962 63.1993 312.737 62.0262 311.655C61.9396 311.559 61.9446 311.467 62.0412 311.381L63.0492 310.999C63.2124 310.955 63.3445 310.989 63.4455 311.101C63.895 311.7 64.6031 312.538 65.5698 313.617C65.6042 312.425 66.0479 311.446 66.9009 310.682C68.0999 309.607 69.4237 309.189 70.8724 309.429C72.1549 309.629 73.3336 310.328 74.4085 311.527C74.5961 311.737 74.7775 311.988 74.9529 312.28C76.3328 312.8 77.3285 312.785 77.94 312.237C78.447 311.782 78.2063 311.004 77.218 309.901L74.9297 307.446C72.448 304.678 72.2532 302.356 74.3454 300.48C75.7054 299.261 77.2766 298.868 79.0591 299.302C80.7284 299.707 82.3818 300.823 84.0194 302.65C85.3829 304.171 86.1411 305.704 86.2939 307.251C86.4296 308.552 86.0951 309.563 85.2904 310.284C84.0109 311.431 82.3211 311.473 80.2209 310.41ZM79.682 309.347C79.9067 309.436 80.2042 309.525 80.5743 309.614C81.5854 309.738 82.4772 309.454 83.2497 308.761C84.151 307.953 84.5377 306.968 84.4098 305.805C84.2969 304.789 83.8003 303.79 82.9202 302.808C81.7948 301.553 80.5502 300.869 79.1864 300.756C78.0596 300.648 77.0938 300.955 76.2891 301.677C75.6051 302.29 75.3419 302.976 75.4995 303.735C75.6308 304.415 76.1184 305.226 76.9625 306.168L78.3043 307.665C78.8021 308.22 79.2613 308.781 79.682 309.347ZM67.7457 317.501C68.4238 318.257 69.2477 318.585 70.2175 318.485C71.0877 318.387 71.9533 317.952 72.8143 317.18C73.8363 316.264 74.3976 315.304 74.4983 314.299C74.5819 313.469 74.3315 312.729 73.7471 312.077C73.0978 311.353 72.2767 311.044 71.2836 311.15C70.3676 311.246 69.4711 311.687 68.594 312.473C67.6203 313.346 67.0943 314.289 67.0161 315.303C66.9398 316.14 67.1829 316.873 67.7457 317.501Z" fill="#565555"/>
<path d="M62.4952 303.73C61.3946 304.568 60.729 305.183 60.4984 305.576C60.2637 305.999 60.2839 306.391 60.5589 306.753L61.3568 307.693C61.4616 307.831 61.3979 307.988 61.1658 308.165C61.0024 308.289 60.8045 308.27 60.572 308.108C59.2456 307.026 57.994 306.131 56.8173 305.425C56.6602 305.218 56.6633 305.053 56.8267 304.928C58.5557 303.72 60.0952 302.603 61.4452 301.575L64.7469 299.06C66.372 297.823 67.2399 297.081 67.3504 296.834C67.4844 296.528 67.2355 295.889 66.6037 294.916C66.5248 294.759 66.567 294.618 66.7303 294.494C66.9625 294.317 67.1309 294.297 67.2357 294.435C68.0066 295.519 68.6409 296.387 69.1385 297.041C69.7277 297.815 70.4291 298.7 71.2426 299.697C71.3474 299.835 71.2837 299.992 71.0515 300.169C70.8881 300.293 70.7412 300.296 70.6106 300.178C69.9157 299.444 69.3954 299.073 69.0495 299.065C68.7555 299.071 67.796 299.693 66.171 300.931L62.4952 303.73ZM50.2368 311.821C49.9356 311.425 49.8391 310.942 49.9474 310.37C50.0453 309.875 50.262 309.499 50.5973 309.244C51.0358 308.91 51.5332 308.796 52.0895 308.902C52.5615 309.005 52.9284 309.228 53.1903 309.572C53.5046 309.985 53.6162 310.47 53.5251 311.028C53.4509 311.52 53.2246 311.909 52.8463 312.197C52.4508 312.499 51.964 312.591 51.386 312.474C50.8883 312.391 50.5052 312.173 50.2368 311.821Z" fill="#565555"/>
<path d="M53.0545 294.886C50.6292 294.87 48.8657 293.99 47.764 292.244C46.9854 291.01 46.7417 289.784 47.033 288.565C47.3042 287.435 47.9927 286.521 49.0985 285.824L52.209 283.918L53.9775 282.802C55.6408 281.752 56.5468 281.072 56.6955 280.761C56.85 280.459 56.7047 279.854 56.2597 278.946C56.1833 278.764 56.2365 278.616 56.4193 278.5C56.6203 278.373 56.7728 278.392 56.8766 278.557C57.5264 279.667 58.0648 280.561 58.4916 281.237C58.9415 281.95 59.551 282.875 60.3201 284.013C60.424 284.177 60.3753 284.323 60.1743 284.45C59.9915 284.565 59.8345 284.549 59.7032 284.402C59.173 283.663 58.7011 283.29 58.2875 283.283C57.9369 283.274 56.93 283.795 55.2666 284.844L50.9757 287.553C50.3177 287.968 49.8493 288.41 49.5707 288.88C48.9111 289.961 48.9388 291.068 49.6541 292.201C50.3578 293.316 51.4803 293.931 53.0216 294.044C53.8386 294.104 54.6904 293.854 55.5769 293.294L59.1687 291.027C60.8686 289.954 61.7833 289.288 61.9127 289.027C62.008 288.814 62.0242 288.586 61.9613 288.345C61.8892 288.109 61.7076 287.7 61.4163 287.117C61.3515 286.953 61.4104 286.814 61.5932 286.698C61.7943 286.571 61.9409 286.581 62.0332 286.727C62.7061 287.875 63.2445 288.768 63.6482 289.408C64.1212 290.157 64.7307 291.082 65.4768 292.183C65.569 292.33 65.5147 292.466 65.3136 292.593C65.1308 292.709 64.9796 292.702 64.8599 292.573C64.3114 291.846 63.8395 291.472 63.4442 291.454C63.0844 291.451 62.0775 291.971 60.4232 293.015L56.5025 295.49C55.3326 296.228 54.6202 296.78 54.3652 297.145C54.0876 297.576 54.0584 297.965 54.2775 298.312L54.9467 299.251C55.0563 299.425 54.9694 299.601 54.6861 299.78C54.5216 299.884 54.3386 299.826 54.1372 299.609C53.1579 298.604 52.0172 297.637 50.7152 296.707C50.5883 296.506 50.6071 296.354 50.7716 296.25C51.8 295.652 52.561 295.198 53.0545 294.886Z" fill="#565555"/>
<path d="M46.7109 277.509C47.2052 277.339 47.6222 277.171 47.9618 277.004C49.7278 276.138 50.9189 274.91 51.5353 273.319C52.0286 272.018 52.0135 270.834 51.49 269.767C50.6477 268.049 49.2852 267.038 47.4025 266.734C47.3011 266.723 47.229 266.675 47.1862 266.587C47.1291 266.471 47.1253 266.328 47.1749 266.159C47.2002 266.015 47.2517 265.923 47.3293 265.885C47.436 265.833 47.5907 265.829 47.7934 265.874C50.2511 266.197 51.9962 267.412 53.0289 269.517C54.014 271.526 54.1005 273.482 53.2884 275.385C52.5553 277.08 51.2281 278.399 49.3069 279.342C47.1431 280.403 45.0344 280.582 42.9808 279.88C41.2067 279.282 39.9057 278.139 39.0776 276.45C38.3019 274.869 38.2295 273.285 38.8603 271.7C39.4023 270.351 40.3578 269.28 41.7269 268.488C41.8724 268.417 42.0175 268.406 42.1621 268.455C42.3067 268.505 42.4052 268.583 42.4576 268.69C43.3845 270.727 44.3143 272.696 45.247 274.598C45.899 275.927 46.387 276.898 46.7109 277.509ZM45.5773 277.849C45.3112 277.257 44.9212 276.437 44.4072 275.389C43.7457 274.04 43.0763 272.774 42.3991 271.589C42.3039 271.395 42.1253 271.362 41.8634 271.491C40.8436 272.111 40.166 272.865 39.8305 273.752C39.5441 274.542 39.5794 275.301 39.9363 276.029C40.3741 276.922 41.1332 277.524 42.2135 277.837C43.1875 278.13 44.3088 278.134 45.5773 277.849Z" fill="#565555"/>
<path d="M39.7006 262.048C40.2095 261.928 40.6413 261.803 40.996 261.671C42.8401 260.987 44.1488 259.885 44.922 258.365C45.5437 257.12 45.6478 255.94 45.2344 254.826C44.5691 253.032 43.3152 251.889 41.4727 251.397C41.3729 251.376 41.306 251.32 41.2722 251.229C41.2271 251.108 41.2377 250.965 41.3041 250.802C41.3438 250.661 41.4042 250.575 41.4852 250.545C41.5967 250.504 41.751 250.516 41.9481 250.581C44.3607 251.15 45.9749 252.534 46.7905 254.732C47.5686 256.83 47.4579 258.784 46.4585 260.596C45.5585 262.209 44.1053 263.388 42.0991 264.132C39.8395 264.97 37.7234 264.937 35.7509 264.032C34.046 263.258 32.8666 261.99 32.2125 260.226C31.5999 258.575 31.6871 256.992 32.4742 255.478C33.1492 254.191 34.2076 253.222 35.6493 252.571C35.8013 252.515 35.9468 252.519 36.0857 252.583C36.2246 252.646 36.3147 252.734 36.3561 252.845C37.0733 254.965 37.8003 257.018 38.537 259.004C39.0519 260.393 39.4398 261.407 39.7006 262.048ZM38.5387 262.272C38.3334 261.656 38.0278 260.801 37.6219 259.707C37.0994 258.298 36.5609 256.971 36.0062 255.724C35.931 255.522 35.7567 255.471 35.4831 255.573C34.4061 256.087 33.6561 256.769 33.2331 257.617C32.8687 258.375 32.8274 259.134 33.1093 259.894C33.4551 260.826 34.1496 261.502 35.193 261.922C36.1327 262.311 37.2479 262.428 38.5387 262.272Z" fill="#565555"/>
<path d="M31.1115 245.042C28.4691 244.258 26.9699 243.209 26.6137 241.894C26.4667 241.352 26.4471 240.887 26.5548 240.499C26.6558 240.17 26.8211 239.974 27.0506 239.912C27.5617 239.773 28.1019 239.845 28.6711 240.127C29.137 240.359 29.411 240.627 29.493 240.929C29.5524 241.148 29.5405 241.476 29.4573 241.913C29.3637 242.353 29.3395 242.656 29.3847 242.823C29.5091 243.282 30.0482 243.701 31.0021 244.081C31.9825 244.476 32.963 244.541 33.9435 244.275L37.6517 243.27C39.5606 242.753 40.6309 242.384 40.8625 242.165C41.1274 241.903 41.1479 241.214 40.9242 240.099C40.9102 239.923 41.0076 239.808 41.2162 239.751C41.4457 239.689 41.583 239.741 41.6282 239.908C41.9342 241.202 42.2003 242.267 42.4264 243.101C42.6695 243.998 42.9858 245.083 43.3752 246.354C43.4261 246.542 43.3368 246.667 43.1073 246.729C42.8987 246.786 42.7533 246.725 42.6711 246.545C42.4465 245.923 42.2628 245.514 42.12 245.317C42.0017 245.17 41.8384 245.063 41.63 244.997C41.271 244.87 40.1526 245.061 38.275 245.57L33.8001 246.783C32.4754 247.142 31.635 247.47 31.2791 247.768C30.8928 248.119 30.7476 248.472 30.8438 248.827L31.2159 249.952C31.2696 250.15 31.166 250.284 30.9053 250.355C30.6862 250.415 30.4996 250.325 30.3455 250.087C29.6388 248.677 28.8271 247.397 27.9105 246.246C27.8427 245.995 27.9026 245.845 28.0904 245.794C29.343 245.499 30.35 245.249 31.1115 245.042Z" fill="#565555"/>
<path d="M28.5953 228.059L30.8088 227.636L32.2575 235.232L30.0441 235.654L28.5953 228.059Z" fill="#565555"/>
<path d="M26.3267 205.052L28.5767 204.93L28.9942 212.652L26.7442 212.773L26.3267 205.052Z" fill="#565555"/>
<path d="M16.3701 197.424L16.3528 197.796L30.4796 198.321C32.8454 198.398 34.2949 198.287 34.8281 197.987C35.2837 197.727 35.5985 196.886 35.7725 195.466C35.8129 195.295 35.9464 195.215 36.1731 195.225C36.443 195.238 36.574 195.331 36.566 195.503C36.5407 195.816 36.5094 196.258 36.4721 196.83C36.3753 197.983 36.3157 198.802 36.2932 199.288C36.2757 199.666 36.2496 200.93 36.2148 203.082C36.2048 203.298 36.0648 203.399 35.7949 203.387C35.5574 203.376 35.4329 203.262 35.4213 203.045C35.3513 201.754 35.1007 200.975 34.6696 200.706C34.0595 200.331 32.6378 200.076 30.4046 199.94L18.1551 199.178C16.3645 199.062 15.2178 199.177 14.7149 199.521C14.2008 199.876 13.8349 200.768 13.6173 202.197C13.5857 202.412 13.4511 202.514 13.2136 202.503C12.8358 202.485 12.6518 202.369 12.6618 202.153C12.7796 201.011 12.8593 199.993 12.9008 199.097C12.9499 198.039 12.9856 197.034 13.008 196.083C14.1912 195.532 15.5689 194.752 17.1411 193.743L28.4444 186.558C30.5282 185.248 32.11 184.267 33.1897 183.614L29.1089 183.425L19.4723 183.01C17.2267 182.906 15.8199 183.031 15.2519 183.383C14.8291 183.634 14.5256 184.464 14.3413 185.872C14.3107 186.066 14.1767 186.157 13.9392 186.146C13.5829 186.129 13.4093 186.024 13.4183 185.83C13.5882 184.031 13.6887 182.797 13.7197 182.127C13.7617 181.22 13.776 179.977 13.7627 178.397C13.7727 178.181 13.9559 178.081 14.3121 178.098C14.5172 178.107 14.6418 178.221 14.6858 178.439C14.7377 179.654 14.9674 180.416 15.3749 180.727C15.8663 181.096 17.2556 181.35 19.5428 181.488L31.2248 182.241C31.9805 182.276 32.5367 182.296 32.8935 182.302C33.8867 182.348 35.2263 182.388 36.9125 182.423C37.4416 183.378 37.705 183.882 37.7024 183.936C37.6989 184.012 37.6415 184.085 37.53 184.156C35.7763 185.113 33.8125 186.282 31.6388 187.664L16.3701 197.424Z" fill="#565555"/>
<path d="M23.7111 171.519C24.0474 169.406 25.092 167.794 26.8446 166.683C28.4399 165.668 30.3048 165.33 32.4393 165.67C34.8514 166.053 36.6831 167.128 37.9344 168.892C39.0079 170.398 39.3951 172.09 39.0961 173.968C38.7563 176.103 37.6949 177.718 35.912 178.813C34.3235 179.785 32.4887 180.106 30.4075 179.775C28.0061 179.393 26.1671 178.296 24.8906 176.484C23.8205 174.956 23.4274 173.302 23.7111 171.519ZM24.6876 171.675C24.4702 173.041 24.9362 174.204 26.0856 175.164C27.1492 176.044 28.7003 176.647 30.7388 176.971C33.1402 177.354 34.9771 177.192 36.2494 176.486C37.2918 175.919 37.9098 175.027 38.1035 173.81C38.3227 172.433 37.8592 171.254 36.7132 170.273C35.653 169.371 34.1143 168.76 32.0971 168.438C29.6637 168.051 27.8029 168.225 26.5148 168.962C25.4904 169.554 24.8813 170.458 24.6876 171.675Z" fill="#565555"/>
<path d="M39.2858 156.282C38.9357 156.043 38.1541 155.493 36.9409 154.632L33.2324 151.931C32.077 151.063 31.2382 150.56 30.7161 150.42C30.382 150.331 30.1108 150.404 29.9026 150.639C29.7209 150.859 29.5025 151.321 29.2476 152.025C29.1689 152.194 29.0199 152.249 28.8006 152.191C28.5604 152.127 28.4626 152.011 28.5072 151.844C28.8807 150.613 29.1566 149.663 29.335 148.995C29.4966 148.389 29.6987 147.548 29.9412 146.472C29.997 146.263 30.1449 146.191 30.3851 146.255C30.6148 146.316 30.7122 146.454 30.6774 146.668C30.5728 147.312 30.6649 147.868 30.9537 148.336C31.3016 148.876 32.1727 149.657 33.5669 150.678L38.8017 154.575C40.1771 155.625 41.3151 156.432 42.2158 156.997C42.3402 157.746 42.3885 158.172 42.3606 158.277C42.33 158.392 42.2583 158.451 42.1455 158.454C40.868 158.505 39.3653 158.624 37.6374 158.811L31.2298 159.433C29.3446 159.624 28.1482 159.852 27.6406 160.12C27.2702 160.334 26.9488 160.847 26.6764 161.657C26.6005 161.816 26.4529 161.866 26.2336 161.808C25.9935 161.744 25.8957 161.628 25.9403 161.461C26.3499 160.094 26.6593 159.019 26.8683 158.236C27.0969 157.379 27.3798 156.236 27.7171 154.804C27.7617 154.637 27.9041 154.586 28.1442 154.65C28.3635 154.708 28.4665 154.825 28.4532 155.001C28.1849 156.216 28.3014 156.89 28.8026 157.024C29.2202 157.135 30.2495 157.113 31.8904 156.959L36.4747 156.504C37.5064 156.411 38.4435 156.336 39.2858 156.282Z" fill="#565555"/>
<path d="M36.5776 143.281C35.2735 142.82 34.394 142.6 33.9389 142.622C33.4563 142.658 33.1393 142.89 32.9878 143.318L32.6379 144.501C32.5802 144.664 32.4138 144.697 32.1387 144.599C31.9452 144.531 31.8527 144.355 31.8613 144.071C32.0397 142.369 32.1022 140.832 32.0489 139.46C32.1354 139.216 32.2755 139.128 32.4691 139.196C34.4269 139.981 36.2055 140.656 37.805 141.222L41.7172 142.607C43.6427 143.288 44.7392 143.608 45.0066 143.565C45.3358 143.509 45.734 142.951 46.2014 141.89C46.2896 141.738 46.4305 141.696 46.6241 141.764C46.8992 141.862 47.0079 141.992 46.9502 142.155C46.4659 143.393 46.0867 144.4 45.8127 145.174C45.4881 146.091 45.1317 147.163 44.7433 148.39C44.6856 148.553 44.5193 148.586 44.2442 148.488C44.0506 148.42 43.9674 148.299 43.9945 148.125C44.228 147.141 44.2534 146.503 44.0709 146.209C43.9044 145.966 42.8584 145.504 40.9329 144.823L36.5776 143.281ZM23.0926 137.459C23.2585 136.991 23.6101 136.645 24.1474 136.423C24.6158 136.233 25.0486 136.209 25.446 136.349C25.9656 136.533 26.3333 136.887 26.5493 137.41C26.7221 137.861 26.7364 138.291 26.5922 138.698C26.4191 139.187 26.0741 139.546 25.5571 139.776C25.1055 139.983 24.6556 140.007 24.2073 139.849C23.7387 139.683 23.3949 139.326 23.176 138.779C22.9726 138.317 22.9448 137.877 23.0926 137.459Z" fill="#565555"/>
<path d="M37.2056 126.499C37.7505 125.275 38.4803 124.234 39.3948 123.375C40.0547 122.77 40.6462 122.583 41.1695 122.816C41.7915 123.093 42.2127 123.423 42.4331 123.805C42.6205 124.101 42.6549 124.382 42.5363 124.649C42.3824 124.995 41.7272 125.271 40.5705 125.478L40.2182 125.551C39.1526 125.74 38.4418 126.233 38.0858 127.033C37.5585 128.218 37.7459 129.431 38.6483 130.673C39.4685 131.807 40.7622 132.767 42.5295 133.554C44.3265 134.354 46.0119 134.501 47.5857 133.995C48.8544 133.589 49.7195 132.868 50.181 131.832C50.6468 130.785 50.84 129.859 50.7603 129.055C50.6872 128.396 50.4193 127.655 49.9567 126.834C49.8931 126.711 49.8745 126.62 49.9009 126.561C49.9624 126.423 50.0689 126.316 50.2204 126.242C50.3477 126.168 50.4558 126.151 50.5447 126.191C50.5743 126.204 50.6248 126.25 50.696 126.329C52.1619 128.484 52.4004 130.672 51.4116 132.894C50.5414 134.849 49.113 136.118 47.1266 136.7C45.3497 137.211 43.4937 137.035 41.5585 136.174C39.3074 135.172 37.8022 133.65 37.043 131.608C36.4042 129.881 36.4584 128.178 37.2056 126.499Z" fill="#565555"/>
<path d="M48.1726 118.657C48.5921 118.969 48.9664 119.218 49.2955 119.404C51.0072 120.373 52.6933 120.663 54.354 120.275C55.7066 119.948 56.6757 119.267 57.2614 118.232C58.2039 116.568 58.2695 114.872 57.4583 113.146C57.4097 113.057 57.4094 112.97 57.4573 112.885C57.5212 112.772 57.6368 112.689 57.8042 112.634C57.938 112.573 58.0425 112.564 58.1177 112.607C58.2212 112.665 58.3115 112.791 58.3887 112.984C59.5087 115.195 59.4911 117.321 58.3356 119.362C57.2335 121.309 55.6678 122.484 53.6385 122.887C51.8249 123.239 49.987 122.888 48.1249 121.834C46.0277 120.646 44.6894 119.007 44.11 116.915C43.6028 115.113 43.8125 113.394 44.7389 111.757C45.6068 110.224 46.8731 109.271 48.5379 108.897C49.9576 108.583 51.3805 108.768 52.8069 109.451C52.9479 109.531 53.0389 109.644 53.0797 109.792C53.1205 109.939 53.1116 110.064 53.053 110.168C51.8944 112.083 50.7933 113.962 49.7497 115.805C49.0203 117.094 48.4946 118.044 48.1726 118.657ZM47.2527 117.912C47.591 117.359 48.0477 116.574 48.6227 115.558C49.3628 114.251 50.0307 112.984 50.6264 111.756C50.7328 111.568 50.6591 111.402 50.4052 111.258C49.3175 110.767 48.3129 110.632 47.3915 110.856C46.5773 111.066 45.9706 111.523 45.5712 112.229C45.0814 113.094 45.0122 114.061 45.3636 115.129C45.6718 116.098 46.3015 117.026 47.2527 117.912Z" fill="#565555"/>
<path d="M61.3188 93.0255L65.7185 96.5566C67.1429 97.6997 68.0457 98.3965 68.4267 98.6469C68.7589 98.8719 69.0574 99.0007 69.3224 99.0332C69.8033 99.0727 70.5848 98.522 71.6668 97.3811C71.8257 97.2176 72.0063 97.2171 72.2086 97.3794C72.4361 97.562 72.4789 97.7419 72.3369 97.9189C71.1803 99.2217 70.2131 100.358 69.4352 101.327C68.6708 102.28 67.8319 103.394 66.9185 104.67C66.7765 104.847 66.5916 104.844 66.3641 104.662C66.1618 104.499 66.1233 104.323 66.2484 104.132C67.035 103.031 67.3325 102.238 67.1408 101.751C66.9222 101.229 65.8731 100.214 63.9936 98.7058L54.9161 91.4205C53.5591 90.3314 52.6741 89.6557 52.261 89.3935C51.9558 89.204 51.6665 89.0896 51.3931 89.0503C50.9054 89.0192 50.1289 89.5809 49.0638 90.7353C48.9387 90.8567 48.7835 90.8429 48.598 90.6941C48.3199 90.4709 48.2349 90.2918 48.3432 90.157C49.8345 88.4715 51.632 86.3181 53.7357 83.6969C55.6704 81.2863 57.3295 79.1327 58.7131 77.2361C59.6674 77.8773 61.1647 78.8088 63.2051 80.0306L63.2809 80.0914C63.4326 80.2132 63.3867 80.4258 63.1432 80.7292C63.0553 80.8388 62.9236 80.8648 62.7482 80.8071C61.3279 80.2631 60.0597 80.1252 58.9436 80.3935C58.3442 80.5361 57.7631 80.8457 57.2003 81.3225C56.6392 81.8144 55.902 82.6293 54.9888 83.7672C53.9809 85.023 53.5854 85.9389 53.8022 86.5148C53.9585 86.9589 54.9048 87.8777 56.641 89.2712L60.3833 92.2746C60.6318 92.0168 61.0943 91.4664 61.7707 90.6236C63.3063 88.7103 64.0838 87.4221 64.1034 86.7588C64.1027 86.1208 63.719 85.4248 62.9522 84.6708C62.8208 84.5238 62.8397 84.3449 63.0088 84.1342C63.2049 83.8898 63.3789 83.8284 63.5306 83.9502C64.6414 84.8971 65.4749 85.5938 66.0312 86.0403C66.7982 86.6558 67.781 87.4169 68.9796 88.3234C69.1482 88.4587 69.1344 88.6486 68.9382 88.893C68.7623 89.1121 68.5749 89.1557 68.376 89.0238C67.3306 88.3234 66.4998 88.0723 65.8834 88.2705C65.1488 88.5124 64.0645 89.5267 62.6304 91.3136C62.1569 91.9036 61.7197 92.4742 61.3188 93.0255Z" fill="#565555"/>
<path d="M74.2731 78.4261C73.6096 75.7509 73.7541 73.9266 74.7064 72.9533C75.0994 72.5516 75.4903 72.299 75.8789 72.1954C76.2143 72.1153 76.4669 72.1584 76.6369 72.3247C77.0154 72.695 77.2272 73.1971 77.2723 73.8309C77.3086 74.3502 77.2171 74.7219 76.9979 74.9459C76.8392 75.1081 76.5505 75.2641 76.1318 75.4139C75.7054 75.5561 75.4317 75.689 75.3107 75.8126C74.9782 76.1525 74.89 76.8298 75.0463 77.8445C75.2029 78.8898 75.6443 79.7677 76.3704 80.4782L79.1165 83.1651C80.5302 84.5482 81.3903 85.284 81.697 85.3723C82.0572 85.4678 82.6612 85.1364 83.5088 84.3782C83.6529 84.2773 83.8022 84.3024 83.9567 84.4536C84.1267 84.6198 84.1512 84.7648 84.0303 84.8884C83.0697 85.8083 82.2871 86.5772 81.6824 87.1952C81.0324 87.8595 80.2581 88.6819 79.3593 89.6623C79.2233 89.8013 79.0703 89.7877 78.9003 89.6214C78.7458 89.4703 78.725 89.3138 78.8379 89.1521C79.2603 88.6431 79.52 88.2772 79.6169 88.0546C79.6838 87.8781 79.6931 87.6831 79.6449 87.4696C79.5721 87.0959 78.8404 86.2289 77.45 84.8684L74.136 81.6259C73.155 80.666 72.4458 80.1082 72.0085 79.9525C71.5101 79.7975 71.1324 79.8513 70.8754 80.1139L70.0941 81.0051C69.9505 81.1519 69.7821 81.1308 69.589 80.9418C69.4268 80.7831 69.4093 80.577 69.5364 80.3234C70.3932 78.9995 71.0854 77.6508 71.6131 76.277C71.7945 76.0916 71.9547 76.067 72.0937 76.203C72.9828 77.1333 73.7092 77.8744 74.2731 78.4261Z" fill="#565555"/>
<path d="M83.6665 64.772C85.2956 63.3846 87.1371 62.8384 89.1911 63.1333C91.0635 63.3983 92.7003 64.3536 94.1017 65.9992C95.6853 67.8588 96.3793 69.8655 96.1837 72.0194C96.0207 73.8616 95.2152 75.3993 93.7671 76.6326C92.1215 78.034 90.2653 78.5714 88.1986 78.2447C86.3591 77.9517 84.7562 77.0029 83.3898 75.3984C81.8133 73.5472 81.1287 71.5182 81.3362 69.3116C81.5156 67.4553 82.2924 65.9421 83.6665 64.772ZM84.3076 65.5248C83.2544 66.4217 82.8527 67.6085 83.1023 69.0851C83.3383 70.4456 84.1254 71.9117 85.4638 73.4832C87.0403 75.3345 88.5415 76.4054 89.9671 76.696C91.128 76.9424 92.1774 76.6662 93.1154 75.8674C94.1768 74.9635 94.5909 73.7662 94.3577 72.2755C94.1382 70.901 93.3663 69.4362 92.042 67.8811C90.4444 66.0051 88.9169 64.9283 87.4596 64.6505C86.2962 64.4346 85.2456 64.726 84.3076 65.5248Z" fill="#565555"/>
<path d="M97.9278 57.5259C97.8635 55.1015 98.6855 53.3099 100.394 52.1512C101.601 51.3323 102.819 51.0483 104.047 51.2993C105.185 51.533 106.121 52.191 106.855 53.2732L108.862 56.3191L110.036 58.0498C111.14 59.6776 111.85 60.5607 112.166 60.6991C112.473 60.8435 113.072 60.6784 113.965 60.2036C114.144 60.1213 114.294 60.1695 114.416 60.3484C114.549 60.5452 114.535 60.6981 114.374 60.8073C113.286 61.4935 112.41 62.061 111.749 62.5099C111.051 62.9831 110.146 63.6228 109.035 64.429C108.874 64.5382 108.726 64.4944 108.593 64.2976C108.472 64.1187 108.482 63.9613 108.625 63.8252C109.346 63.271 109.704 62.787 109.697 62.3734C109.694 62.0227 109.141 61.0335 108.037 59.4056L105.189 55.2064C104.752 54.5624 104.294 54.1089 103.816 53.846C102.713 53.2223 101.608 53.2866 100.499 54.0388C99.4077 54.7789 98.8308 55.9211 98.7681 57.4653C98.7357 58.2839 99.0137 59.1269 99.6022 59.9945L101.986 63.5095C103.115 65.1731 103.811 66.0653 104.076 66.1861C104.292 66.2743 104.52 66.283 104.76 66.2121C104.993 66.1323 105.396 65.9373 105.969 65.627C106.13 65.5567 106.271 65.6111 106.393 65.7899C106.526 65.9867 106.521 66.1336 106.378 66.2307C105.254 66.9411 104.379 67.5086 103.753 67.9332C103.019 68.4307 102.115 69.0704 101.039 69.8523C100.896 69.9494 100.757 69.8995 100.624 69.7028C100.503 69.5239 100.504 69.3725 100.629 69.2486C101.338 68.6764 101.695 68.1925 101.701 67.7967C101.692 67.4371 101.139 66.4479 100.041 64.829L97.4384 60.992C96.6619 59.8471 96.0869 59.1533 95.7132 58.9105C95.2735 58.6472 94.8837 58.6308 94.5438 58.8614L93.6277 59.5611C93.4577 59.6764 93.2787 59.5954 93.0907 59.3181C92.9815 59.1571 93.0325 58.9723 93.2436 58.7638C94.2157 57.7519 95.1446 56.58 96.0302 55.248C96.227 55.1145 96.38 55.1283 96.4892 55.2893C97.1207 56.2974 97.6003 57.043 97.9278 57.5259Z" fill="#565555"/>
<path d="M112.493 46.8069L110.702 47.8231C110.512 47.9268 110.347 47.8506 110.207 47.5946C110.073 47.3481 110.09 47.154 110.259 47.0124C111.022 46.3362 111.502 45.5689 111.697 44.7105C111.884 43.8814 111.91 43.0051 111.775 42.0815C111.738 41.8797 111.834 41.7166 112.061 41.5921C112.318 41.4521 112.5 41.4817 112.609 41.6808C113.33 43.1343 113.809 44.0791 114.048 44.5153C115.138 43.919 116.451 43.1767 117.985 42.2884C118.099 42.2262 118.187 42.252 118.249 42.3658L118.43 43.3385C118.455 43.4972 118.397 43.6154 118.254 43.6932C117.522 44.02 116.292 44.6552 114.567 45.5989L118.414 52.7701C119.187 54.183 119.913 55.0486 120.592 55.367C121.246 55.6622 121.895 55.6334 122.54 55.2809C123.242 54.8972 123.708 54.2972 123.939 53.481C123.965 53.393 124.006 53.3335 124.063 53.3024C124.168 53.2453 124.306 53.2499 124.477 53.3162C124.62 53.3738 124.714 53.4453 124.761 53.5306C124.792 53.5875 124.795 53.66 124.769 53.748C124.395 55.2949 123.659 56.369 122.559 56.9705C121.354 57.629 120.267 57.7923 119.298 57.4604C118.356 57.1129 117.499 56.2328 116.727 54.8199L114.621 50.8348L112.493 46.8069Z" fill="#565555"/>
<path d="M130.607 41.0793L131.539 43.131L124.498 46.3281L123.566 44.2764L130.607 41.0793Z" fill="#565555"/>
<path d="M151.51 44.2597C148.543 45.1713 145.938 46.0196 143.693 46.8045C141.184 47.6821 138.515 48.6783 135.688 49.793C135.525 49.8501 135.395 49.7409 135.299 49.4655C135.217 49.2308 135.252 49.0697 135.404 48.982C136.202 48.6114 136.734 48.3165 137.001 48.0972C137.21 47.9096 137.351 47.6888 137.422 47.4348C137.545 46.9682 137.193 45.5515 136.365 43.1848L132.523 32.1978C131.952 30.5656 131.561 29.5288 131.349 29.0876C131.187 28.755 130.995 28.5015 130.774 28.327C130.387 28.0387 129.477 28.088 128.044 28.4747C127.853 28.5185 127.718 28.4282 127.64 28.2038C127.522 27.8671 127.555 27.6667 127.739 27.6025C129.876 26.9696 132.5 26.1091 135.612 25.0209C138.488 24.0149 141.006 23.0773 143.163 22.2083C144.349 24.7475 145.105 26.3377 145.433 26.9789L145.465 27.0707C145.529 27.2543 145.393 27.405 145.056 27.5227C144.944 27.562 144.841 27.5293 144.747 27.4247C143.806 26.2081 142.776 25.4063 141.656 25.0194C140.677 24.6749 138.994 24.9201 136.607 25.7549C135.117 26.2757 134.292 26.845 134.13 27.4626C134.023 27.8777 134.216 28.7892 134.708 30.197L136.645 35.7364C137.01 35.6319 137.681 35.4084 138.661 35.066C140.905 34.2811 142.209 33.5903 142.573 32.9937C142.964 32.3761 143.046 31.5973 142.821 30.6573C142.777 30.4665 142.857 30.3355 143.061 30.2641C143.377 30.1535 143.567 30.1901 143.632 30.3737C144.09 31.8162 144.428 32.8485 144.646 33.4708C144.953 34.3482 145.384 35.5142 145.938 36.9689C146.002 37.1526 145.876 37.2997 145.56 37.4103C145.356 37.4816 145.208 37.4188 145.116 37.2219C144.621 36.1013 144.014 35.4437 143.293 35.2492C142.603 35.044 141.177 35.3196 139.014 36.0759C138.361 36.3042 137.7 36.5583 137.031 36.8381L138.936 42.2857C139.653 44.3362 140.236 45.5291 140.685 45.8643C141.024 46.1122 141.439 46.2189 141.931 46.1844C142.419 46.1396 143.142 45.9495 144.101 45.6142C145.632 45.0791 146.788 44.5545 147.57 44.0406C148.233 43.6139 148.779 43.0966 149.208 42.4888C149.831 41.5841 150.245 40.2656 150.452 38.5331C150.463 38.3688 150.515 38.2707 150.607 38.2386C151.005 38.0994 151.245 38.1472 151.327 38.3818L151.35 38.5455C151.547 40.32 151.6 42.2247 151.51 44.2597Z" fill="#565555"/>
<path d="M155.62 30.8268C156.435 28.5427 157.848 27.1687 159.86 26.7049C161.281 26.377 162.519 26.5518 163.574 27.2292C164.551 27.8579 165.186 28.8094 165.48 30.0837L166.252 33.6488L166.722 35.6866C167.164 37.6032 167.507 38.683 167.752 38.9261C167.986 39.1716 168.605 39.234 169.608 39.1135C169.805 39.1014 169.928 39.2007 169.977 39.4113C170.03 39.643 169.962 39.7806 169.772 39.8244C168.509 40.0712 167.488 40.2845 166.709 40.4642C165.888 40.6536 164.813 40.9235 163.485 41.2741C163.296 41.3178 163.174 41.2238 163.121 40.9921C163.072 40.7815 163.139 40.6385 163.321 40.5632C164.194 40.3066 164.702 39.9843 164.845 39.5963C164.969 39.2683 164.81 38.1459 164.368 36.2293L163.228 31.285C163.053 30.5268 162.79 29.9386 162.439 29.5206C161.636 28.5411 160.582 28.2019 159.276 28.5031C157.991 28.7993 157.041 29.6562 156.425 31.0736C156.099 31.8253 156.054 32.7119 156.29 33.7334L157.244 37.872C157.696 39.8308 158.023 40.9143 158.227 41.1225C158.397 41.2829 158.606 41.3733 158.855 41.3936C159.101 41.4033 159.547 41.367 160.194 41.2844C160.37 41.2772 160.482 41.3789 160.53 41.5895C160.584 41.8212 160.526 41.9564 160.358 41.9953C159.053 42.2518 158.032 42.4651 157.294 42.6351C156.431 42.8342 155.356 43.1042 154.071 43.445C153.902 43.4838 153.791 43.3874 153.738 43.1557C153.689 42.9451 153.746 42.8046 153.907 42.7342C154.774 42.4565 155.282 42.1341 155.431 41.7672C155.552 41.4286 155.393 40.3063 154.954 38.4002L153.912 33.8824C153.601 32.5345 153.315 31.6798 153.055 31.3185C152.739 30.9142 152.382 30.7582 151.982 30.8505L150.875 31.1723C150.675 31.2185 150.537 31.0783 150.462 30.7518C150.418 30.5623 150.532 30.4084 150.804 30.2902C152.076 29.6974 153.366 28.9399 154.672 28.0175C154.904 27.964 155.042 28.0321 155.085 28.2217C155.31 29.3898 155.488 30.2582 155.62 30.8268Z" fill="#565555"/>
<path d="M182.185 24.7912L181.525 18.9111C181.361 17.4505 181.185 16.5568 180.996 16.23C180.742 15.8126 180.395 15.6286 179.955 15.678L178.786 15.8745C178.625 15.8926 178.532 15.7942 178.508 15.5794C178.475 15.2787 178.567 15.0888 178.787 15.0098C180.028 14.6313 181.477 14.0228 183.133 13.1843C183.348 13.1602 183.464 13.2233 183.481 13.3736C183.751 16.5515 183.999 19.1554 184.227 21.1852L185.574 33.187C185.795 35.1524 185.983 36.246 186.138 36.4678C186.336 36.7719 186.775 36.9021 187.455 36.8584L188.054 36.8237C188.248 36.802 188.358 36.9093 188.384 37.1455C188.413 37.4033 188.333 37.5591 188.143 37.6131C186.748 37.8784 185.345 38.2153 183.934 38.6239C183.762 38.6432 183.664 38.5508 183.641 38.3467C183.547 37.1176 183.486 36.3795 183.458 36.1325C183.025 37.0185 182.404 37.7353 181.595 38.2828C180.899 38.7634 180.175 39.0459 179.423 39.1302C177.189 39.381 175.361 38.7923 173.939 37.3641C172.691 36.1231 171.945 34.4179 171.701 32.2485C171.415 29.7031 171.953 27.6146 173.314 25.9827C174.475 24.6018 176.027 23.8022 177.971 23.584C179.561 23.4056 180.965 23.808 182.185 24.7912ZM178.182 24.5881C176.764 24.7472 175.713 25.5504 175.027 26.9976C174.41 28.2849 174.21 29.8951 174.427 31.8283C174.657 33.8796 175.326 35.4303 176.434 36.4805C177.368 37.3436 178.437 37.7075 179.64 37.5725C180.993 37.4206 182.031 36.7439 182.756 35.5425C183.116 34.9692 183.247 34.253 183.151 33.3938L182.547 28.0132C182.462 27.2614 182.179 26.6244 181.696 26.1022C180.631 24.9493 179.46 24.4446 178.182 24.5881Z" fill="#565555"/>
<path d="M220.493 34.7994L221.821 31.1944L225.453 21.5351C225.99 20.0763 226.29 19.0025 226.354 18.3138C226.411 17.7005 226.267 17.2638 225.922 17.0039C225.587 16.7557 224.944 16.5495 223.993 16.3853C223.802 16.3458 223.717 16.2076 223.739 15.9709C223.772 15.6158 223.885 15.4472 224.079 15.4652C224.347 15.5009 224.787 15.558 225.398 15.6365C226.749 15.8161 227.672 15.9289 228.167 15.9749C228.802 16.0338 229.866 16.0891 231.359 16.1409C231.552 16.1588 231.633 16.3454 231.6 16.7005C231.578 16.9372 231.469 17.0574 231.273 17.0609C230.154 17.0764 229.385 17.2873 228.968 17.6936C228.644 18.0217 228.011 19.3522 227.067 21.685L222.486 32.9818C221.419 35.5854 220.687 37.5091 220.289 38.7529C219.359 39.0682 218.878 39.2243 218.846 39.2213C218.727 39.2103 218.654 39.1275 218.625 38.9729C218.194 36.4799 217.786 34.3256 217.401 32.5099L215.594 23.9088C215.526 23.4792 215.341 22.4852 215.041 20.9269C214.971 21.0941 214.577 22.0019 213.86 23.6502L210.296 31.8829C208.97 35.0594 208.179 36.9669 207.925 37.6053C207.049 37.9256 206.567 38.0817 206.481 38.0737C206.363 38.0627 206.294 37.9912 206.273 37.859C205.976 35.6824 205.596 33.5198 205.133 31.3712L202.803 19.4655C202.341 17.0782 201.933 15.6239 201.58 15.1027C201.378 14.8235 201.131 14.6215 200.839 14.4966C200.536 14.3601 200.044 14.2275 199.361 14.099C199.17 14.0595 199.085 13.9214 199.107 13.6847C199.14 13.3296 199.253 13.161 199.447 13.179C201.236 13.4319 202.555 13.5978 203.406 13.6767C204.74 13.8005 206.267 13.8988 207.986 13.9715C208.158 13.9875 208.227 14.173 208.194 14.5282C208.172 14.7649 208.074 14.886 207.9 14.8916C206.696 14.8883 205.927 14.9852 205.594 15.1822C205.342 15.3217 205.194 15.6281 205.15 16.1016C205.091 16.7473 205.234 17.9545 205.58 19.7232L207.533 29.9008C207.732 30.9177 207.962 32.1711 208.226 33.6608C208.744 32.5258 209.252 31.3736 209.751 30.2044L212.865 22.7926C213.14 22.1669 213.486 21.3633 213.903 20.3817C214.192 19.7248 214.412 19.2242 214.563 18.8801C214.272 17.453 214.002 16.5704 213.751 16.2323C213.353 15.7287 212.602 15.3931 211.5 15.2257C211.308 15.1862 211.223 15.0481 211.245 14.8113C211.278 14.4562 211.392 14.2876 211.585 14.3056C213.331 14.5545 214.683 14.7234 215.641 14.8123C216.556 14.8972 217.851 14.974 219.527 15.0427C219.742 15.0627 219.833 15.2502 219.8 15.6053C219.778 15.8421 219.653 15.9607 219.425 15.9613C218.504 15.9517 217.87 16.0557 217.524 16.2732C217.247 16.4537 217.088 16.7646 217.047 17.2058C216.999 17.7223 217.17 18.9212 217.56 20.8025L219.704 31.0304C219.864 31.7616 220.025 32.5363 220.188 33.3546C220.346 34.1074 220.448 34.5889 220.493 34.7994Z" fill="#565555"/>
<path d="M234.878 32.6393C234.693 33.1282 234.555 33.5564 234.466 33.924C234.002 35.8354 234.185 37.5366 235.013 39.0276C235.697 40.2391 236.617 40.985 237.773 41.2653C239.632 41.7164 241.28 41.3157 242.718 40.0633C242.791 39.992 242.875 39.9679 242.97 39.9908C243.096 40.0214 243.208 40.1097 243.306 40.2558C243.401 40.3679 243.438 40.4659 243.418 40.5499C243.39 40.6655 243.294 40.7867 243.129 40.9137C241.309 42.596 239.259 43.1607 236.98 42.6077C234.806 42.0801 233.247 40.8957 232.304 39.0542C231.469 37.406 231.305 35.5422 231.809 33.4627C232.377 31.1206 233.588 29.3849 235.441 28.2554C237.036 27.2745 238.747 27.0057 240.575 27.4492C242.287 27.8645 243.55 28.8217 244.365 30.3206C245.056 31.6002 245.267 33.0195 245 34.5783C244.962 34.7359 244.878 34.8544 244.747 34.9339C244.617 35.0135 244.494 35.0392 244.378 35.0112C242.219 34.4207 240.111 33.8757 238.052 33.3762C236.613 33.027 235.555 32.7814 234.878 32.6393ZM235.342 31.5509C235.967 31.7248 236.847 31.9494 237.981 32.2246C239.441 32.5789 240.843 32.8745 242.187 33.1116C242.397 33.1626 242.536 33.0463 242.605 32.7627C242.78 31.5819 242.634 30.579 242.167 29.754C241.743 29.0282 241.137 28.5698 240.349 28.3786C239.383 28.1442 238.434 28.3421 237.503 28.9724C236.655 29.534 235.935 30.3935 235.342 31.5509Z" fill="#565555"/>
<path d="M253.338 33.6758C255.064 32.4801 256.725 32.1683 258.323 32.7404C260.449 33.502 261.832 34.801 262.472 36.6372C263.054 38.2807 262.962 40.1707 262.197 42.3073C261.344 44.6881 259.956 46.3204 258.032 47.2041C256.375 47.9535 254.625 47.9984 252.784 47.3388C251.339 46.8213 250.205 45.7895 249.381 44.2431C249.319 44.1289 249.227 44.05 249.105 44.0063C248.982 43.9625 248.866 43.9668 248.756 44.019L247.571 44.7311C247.342 44.8559 247.091 44.8691 246.816 44.7708C246.633 44.7052 246.583 44.5554 246.667 44.3213C247.531 42.3578 248.384 40.201 249.226 37.8507L253.315 26.4351C253.792 25.1022 254.037 24.2257 254.05 23.8056C254.047 23.3337 253.847 23.0268 253.45 22.8846L252.333 22.5881C252.181 22.5334 252.159 22.3535 252.268 22.0483C252.338 21.855 252.5 21.7697 252.756 21.7925C254.139 22.0009 255.657 22.0739 257.31 22.0115C257.534 22.0916 257.615 22.2182 257.553 22.3912C256.562 24.8373 255.631 27.2761 254.76 29.7078L253.338 33.6758ZM250.89 40.513C250.46 41.7135 250.338 42.6458 250.525 43.3097C250.918 44.8396 251.761 45.836 253.053 46.2988C254.345 46.7616 255.621 46.5011 256.88 45.5172C258.032 44.6095 258.932 43.2501 259.581 41.4391C260.266 39.5263 260.34 37.8598 259.805 36.4395C259.352 35.2672 258.561 34.4788 257.432 34.0743C256.19 33.6297 254.94 33.7729 253.679 34.5038C253.142 34.8166 252.73 35.3749 252.442 36.1787L250.89 40.513Z" fill="#565555"/>
<path d="M285.409 62.4853C282.775 60.844 280.425 59.4339 278.36 58.2549C276.052 56.9365 273.549 55.576 270.853 54.1733C270.703 54.0876 270.7 53.918 270.845 53.6646C270.968 53.4488 271.113 53.3696 271.279 53.4272C272.082 53.7862 272.654 53.9945 272.994 54.052C273.273 54.0868 273.532 54.0479 273.771 53.9352C274.203 53.7219 275.042 52.5266 276.285 50.3493L282.057 40.2418C282.914 38.7402 283.44 37.7648 283.634 37.3157C283.779 36.9752 283.844 36.6642 283.831 36.3827C283.795 35.9014 283.16 35.2468 281.928 34.4187C281.77 34.3035 281.75 34.1427 281.868 33.9362C282.045 33.6265 282.218 33.5199 282.386 33.6163C284.266 34.8142 286.637 36.2304 289.5 37.8649C292.146 39.3762 294.505 40.661 296.577 41.7194C295.438 44.28 294.734 45.8942 294.465 46.5618L294.416 46.6463C294.32 46.8152 294.117 46.8112 293.807 46.6344C293.704 46.5754 293.661 46.4762 293.678 46.3368C293.98 44.8287 293.909 43.5251 293.466 42.426C293.084 41.461 291.795 40.3515 289.599 39.0974C288.228 38.315 287.257 38.0653 286.685 38.3483C286.301 38.5401 285.74 39.2836 285 40.5787L282.09 45.6747C282.408 45.881 283.018 46.2415 283.919 46.7559C285.983 47.9349 287.36 48.466 288.049 48.3492C288.772 48.2391 289.413 47.7905 289.975 47.0035C290.09 46.8453 290.242 46.8197 290.429 46.9269C290.72 47.0931 290.817 47.2606 290.721 47.4295C289.933 48.722 289.376 49.6544 289.049 50.2269C288.588 51.034 287.99 52.124 287.256 53.4969C287.16 53.6658 286.966 53.6672 286.675 53.5011C286.488 53.3939 286.438 53.2411 286.526 53.0427C287.047 51.9339 287.145 51.0438 286.819 50.3724C286.521 49.717 285.378 48.8212 283.388 47.685C282.787 47.3421 282.162 47.0098 281.512 46.6883L278.65 51.6998C277.573 53.5862 277.055 54.8089 277.097 55.3678C277.132 55.7861 277.323 56.1694 277.672 56.5178C278.026 56.8568 278.644 57.2782 279.526 57.782C280.934 58.5859 282.088 59.1144 282.989 59.3674C283.747 59.5884 284.495 59.6612 285.235 59.5859C286.326 59.4623 287.594 58.9103 289.037 57.93C289.168 57.8308 289.276 57.8053 289.361 57.8535C289.727 58.0625 289.848 58.2749 289.725 58.4908L289.616 58.6155C288.406 59.9282 287.004 61.2181 285.409 62.4853Z" fill="#565555"/>
<path d="M299.266 57.5788C301.535 56.721 303.497 56.9084 305.153 58.1408C306.323 59.012 306.992 60.0686 307.159 61.3109C307.312 62.4624 306.998 63.5626 306.217 64.6116L304.001 67.5085L302.752 69.1861C301.578 70.7639 300.977 71.7247 300.95 72.0685C300.915 72.4058 301.268 72.9179 302.009 73.6047C302.146 73.7469 302.15 73.9046 302.021 74.078C301.879 74.2687 301.73 74.306 301.574 74.1899C300.568 73.3873 299.744 72.7473 299.103 72.2698C298.427 71.7665 297.525 71.1224 296.398 70.3376C296.242 70.2215 296.235 70.068 296.377 69.8773C296.506 69.7039 296.658 69.6623 296.834 69.7524C297.594 70.2511 298.169 70.4295 298.557 70.2876C298.888 70.1696 299.64 69.3218 300.814 67.7439L303.844 63.6736C304.309 63.0494 304.586 62.468 304.677 61.9295C304.904 60.6836 304.48 59.6607 303.405 58.8605C302.347 58.0733 301.079 57.9039 299.6 58.3524C298.816 58.5909 298.111 59.1306 297.485 59.9715L294.949 63.3786C293.749 64.9912 293.136 65.9423 293.109 66.232C293.096 66.4655 293.163 66.6836 293.309 66.8862C293.461 67.0802 293.777 67.3968 294.259 67.836C294.378 67.9652 294.373 68.1165 294.244 68.2899C294.102 68.4806 293.962 68.5244 293.823 68.4211C292.783 67.5928 291.959 66.9528 291.352 66.5011C290.641 65.9719 289.74 65.3279 288.648 64.5689C288.509 64.4656 288.511 64.3186 288.653 64.1279C288.782 63.9545 288.925 63.9064 289.083 63.9837C289.857 64.465 290.431 64.6434 290.807 64.5188C291.144 64.3922 291.896 63.5443 293.064 61.9752L295.832 58.256C296.658 57.1463 297.124 56.3751 297.231 55.9424C297.335 55.4406 297.222 55.067 296.893 54.8218L295.931 54.1866C295.766 54.064 295.784 53.8684 295.984 53.5996C296.1 53.4435 296.291 53.431 296.557 53.5618C297.833 54.1473 299.245 54.6392 300.794 55.0378C300.985 55.1797 301.022 55.3287 300.906 55.4848C300.161 56.4126 299.615 57.1106 299.266 57.5788Z" fill="#565555"/>
<path d="M306.546 78.436C306.108 77.6704 305.908 77.0461 305.946 76.5632C305.986 76.1567 306.191 75.7562 306.56 75.3618C307.365 74.502 308.82 74.4353 310.923 75.1617C309.695 72.9157 309.835 70.9882 311.342 69.3791C312.384 68.267 313.714 67.7953 315.333 67.964C316.683 68.1034 317.887 68.668 318.944 69.658C319.661 70.3303 320.233 71.1986 320.657 72.2628C321.998 73.5187 323.3 74.6345 324.563 75.6101C324.658 75.6988 324.661 75.7904 324.572 75.8851L323.601 76.3526C323.442 76.4114 323.308 76.389 323.197 76.2856C322.698 75.7285 321.919 74.9549 320.862 73.9649C320.932 75.1554 320.575 76.1687 319.792 77.0048C318.691 78.1801 317.409 78.7114 315.944 78.5987C314.649 78.5111 313.414 77.9169 312.239 76.8161C312.034 76.624 311.831 76.3898 311.631 76.1134C310.211 75.7164 309.221 75.8176 308.659 76.4171C308.194 76.914 308.501 77.6686 309.582 78.6807L312.075 80.9273C314.789 83.4688 315.185 85.7649 313.264 87.8157C312.015 89.1488 310.484 89.6767 308.671 89.3996C306.973 89.1417 305.228 88.1742 303.438 86.4971C301.947 85.1008 301.058 83.6389 300.771 82.1114C300.523 80.8274 300.768 79.791 301.507 79.0022C302.681 77.7481 304.361 77.5593 306.546 78.436ZM307.176 79.4476C306.944 79.3787 306.64 79.316 306.263 79.2595C305.245 79.224 304.382 79.5848 303.672 80.3421C302.845 81.2255 302.545 82.2407 302.774 83.3878C302.975 84.3905 303.557 85.3425 304.519 86.2438C305.75 87.3964 307.049 87.9693 308.417 87.9628C309.549 87.9717 310.485 87.5817 311.224 86.7929C311.851 86.1225 312.054 85.4162 311.831 84.6742C311.641 84.0076 311.084 83.2421 310.162 82.3777L308.694 81.0035C308.15 80.4938 307.644 79.9751 307.176 79.4476ZM318.356 70.2851C317.615 69.5906 316.765 69.3355 315.808 69.5197C314.95 69.6931 314.125 70.2018 313.335 71.0457C312.397 72.0475 311.921 73.0532 311.908 74.0629C311.897 74.8967 312.211 75.6128 312.85 76.2112C313.56 76.8761 314.405 77.1122 315.385 76.9196C316.289 76.7448 317.144 76.2275 317.949 75.3677C318.843 74.4133 319.285 73.4278 319.275 72.4112C319.278 71.5701 318.971 70.8614 318.356 70.2851Z" fill="#565555"/>
<path d="M324.63 83.346C325.653 82.4151 326.263 81.7439 326.458 81.3323C326.655 80.8903 326.601 80.5013 326.295 80.1656L325.418 79.2979C325.302 79.17 325.352 79.0078 325.567 78.8115C325.719 78.6733 325.918 78.6751 326.164 78.8167C327.58 79.7788 328.905 80.5605 330.138 81.162C330.313 81.3539 330.324 81.5189 330.172 81.6571C328.555 83.0113 327.119 84.2593 325.864 85.4011L322.794 88.1937C321.283 89.5682 320.484 90.3834 320.395 90.6394C320.288 90.9556 320.592 91.5705 321.306 92.4841C321.399 92.6338 321.369 92.7778 321.217 92.916C321.001 93.1123 320.835 93.1466 320.719 93.0186C319.856 92.0063 319.149 91.1963 318.596 90.5887C317.941 89.8692 317.165 89.0484 316.268 88.1262C316.152 87.9983 316.201 87.8361 316.417 87.6398C316.569 87.5016 316.715 87.4855 316.855 87.5916C317.612 88.2624 318.163 88.5868 318.508 88.5648C318.8 88.5328 319.702 87.8295 321.213 86.455L324.63 83.346ZM336.136 74.2159C336.47 74.5836 336.609 75.0568 336.551 75.6355C336.496 76.1379 336.313 76.5309 336.001 76.8145C335.594 77.1854 335.108 77.3423 334.545 77.285C334.066 77.2241 333.681 77.0338 333.39 76.714C333.041 76.3303 332.887 75.8563 332.929 75.2922C332.96 74.7964 333.152 74.3885 333.503 74.0685C333.871 73.734 334.348 73.5997 334.934 73.6656C335.437 73.7047 335.838 73.8881 336.136 74.2159Z" fill="#565555"/>
<path d="M334.898 91.3838C337.315 91.1867 339.149 91.9094 340.4 93.5517C341.284 94.7124 341.634 95.9128 341.451 97.1526C341.28 98.3017 340.674 99.2723 339.634 100.064L336.702 102.235L335.038 103.502C333.473 104.694 332.631 105.451 332.51 105.774C332.382 106.089 332.58 106.678 333.103 107.543C333.195 107.718 333.155 107.87 332.983 108.001C332.794 108.145 332.64 108.14 332.523 107.985C331.778 106.936 331.163 106.093 330.679 105.457C330.168 104.786 329.48 103.918 328.614 102.852C328.496 102.697 328.532 102.548 328.721 102.404C328.893 102.273 329.051 102.275 329.194 102.41C329.787 103.1 330.29 103.43 330.703 103.401C331.053 103.379 332.01 102.772 333.575 101.581L337.612 98.5067C338.231 98.0353 338.659 97.5534 338.895 97.061C339.457 95.9265 339.333 94.8261 338.521 93.7599C337.722 92.7109 336.55 92.1974 335.005 92.2195C334.186 92.232 333.359 92.5557 332.525 93.1908L329.146 95.7639C327.547 96.9817 326.694 97.726 326.588 97.997C326.512 98.218 326.515 98.446 326.599 98.681C326.692 98.9095 326.909 99.3013 327.25 99.8565C327.329 100.014 327.282 100.158 327.11 100.289C326.921 100.433 326.774 100.436 326.669 100.298C325.898 99.2146 325.284 98.3718 324.826 97.7699C324.289 97.0649 323.6 96.1966 322.761 95.1652C322.656 95.0276 322.698 94.8868 322.887 94.7428C323.059 94.6119 323.211 94.6053 323.341 94.7233C323.951 95.3997 324.454 95.73 324.849 95.7141C325.208 95.6856 326.166 95.0788 327.722 93.8937L331.411 91.085C332.511 90.2469 333.172 89.6347 333.394 89.2484C333.633 88.7949 333.628 88.4047 333.379 88.078L332.63 87.2016C332.506 87.0382 332.577 86.855 332.844 86.6521C332.998 86.5342 333.186 86.575 333.406 86.7744C334.469 87.6896 335.69 88.5529 337.069 89.3642C337.213 89.5534 337.207 89.7069 337.053 89.8247C336.081 90.5105 335.362 91.0302 334.898 91.3838Z" fill="#565555"/>
<path d="M342.65 107.915C342.173 108.128 341.772 108.333 341.449 108.529C339.766 109.548 338.689 110.877 338.215 112.515C337.839 113.855 337.959 115.033 338.575 116.05C339.566 117.686 341.013 118.573 342.915 118.709C343.017 118.711 343.093 118.753 343.143 118.836C343.211 118.947 343.227 119.089 343.192 119.261C343.18 119.408 343.137 119.503 343.063 119.548C342.961 119.61 342.807 119.627 342.602 119.6C340.125 119.496 338.279 118.44 337.064 116.435C335.905 114.521 335.646 112.581 336.286 110.613C336.866 108.859 338.072 107.428 339.902 106.319C341.963 105.071 344.048 104.705 346.155 105.223C347.976 105.662 349.373 106.686 350.347 108.294C351.26 109.801 351.472 111.372 350.984 113.006C350.564 114.398 349.707 115.549 348.413 116.459C348.274 116.543 348.131 116.567 347.982 116.53C347.834 116.494 347.729 116.425 347.667 116.323C346.564 114.376 345.463 112.497 344.366 110.685C343.599 109.419 343.027 108.495 342.65 107.915ZM343.749 107.477C344.066 108.042 344.528 108.824 345.132 109.823C345.911 111.108 346.689 112.31 347.469 113.43C347.581 113.615 347.762 113.632 348.011 113.48C348.972 112.772 349.58 111.961 349.836 111.048C350.051 110.236 349.949 109.483 349.529 108.79C349.014 107.939 348.204 107.406 347.101 107.19C346.104 106.985 344.987 107.08 343.749 107.477Z" fill="#565555"/>
<path d="M351.078 122.74C350.582 122.905 350.163 123.068 349.822 123.231C348.046 124.077 346.841 125.292 346.207 126.876C345.699 128.171 345.701 129.356 346.213 130.429C347.036 132.155 348.387 133.181 350.266 133.507C350.368 133.518 350.439 133.568 350.481 133.656C350.537 133.773 350.539 133.916 350.488 134.084C350.461 134.228 350.408 134.319 350.33 134.356C350.223 134.408 350.068 134.409 349.866 134.362C347.412 134.011 345.681 132.778 344.671 130.661C343.709 128.641 343.644 126.685 344.477 124.791C345.229 123.104 346.571 121.799 348.503 120.879C350.678 119.842 352.789 119.685 354.834 120.41C356.602 121.029 357.89 122.186 358.699 123.884C359.457 125.474 359.512 127.058 358.863 128.636C358.306 129.979 357.339 131.039 355.961 131.816C355.815 131.885 355.67 131.895 355.526 131.844C355.382 131.793 355.284 131.714 355.233 131.606C354.329 129.559 353.421 127.579 352.509 125.667C351.872 124.331 351.395 123.355 351.078 122.74ZM352.215 122.413C352.475 123.008 352.856 123.832 353.358 124.886C354.004 126.242 354.66 127.516 355.324 128.708C355.417 128.903 355.595 128.937 355.858 128.812C356.885 128.203 357.571 127.457 357.916 126.574C358.211 125.786 358.184 125.027 357.836 124.295C357.408 123.398 356.656 122.787 355.579 122.462C354.608 122.158 353.487 122.142 352.215 122.413Z" fill="#565555"/>
<path d="M361.229 139.022C363.931 139.564 365.519 140.474 365.993 141.75C366.188 142.277 366.25 142.739 366.177 143.134C366.107 143.472 365.96 143.682 365.737 143.765C365.24 143.949 364.696 143.926 364.103 143.696C363.618 143.507 363.321 143.266 363.212 142.972C363.133 142.759 363.116 142.431 363.159 141.989C363.212 141.543 363.209 141.238 363.149 141.076C362.984 140.63 362.409 140.262 361.424 139.97C360.412 139.665 359.43 139.689 358.478 140.043L354.875 141.379C353.021 142.067 351.989 142.53 351.778 142.77C351.538 143.055 351.579 143.743 351.903 144.833C351.933 145.006 351.847 145.131 351.644 145.206C351.421 145.288 351.279 145.249 351.219 145.087C350.797 143.825 350.436 142.789 350.136 141.979C349.812 141.107 349.399 140.056 348.896 138.825C348.829 138.642 348.906 138.51 349.129 138.427C349.332 138.352 349.482 138.4 349.58 138.571C349.86 139.17 350.08 139.561 350.24 139.744C350.371 139.88 350.544 139.971 350.757 140.019C351.126 140.113 352.223 139.821 354.047 139.145L358.393 137.532C359.68 137.055 360.488 136.652 360.815 136.323C361.168 135.938 361.281 135.574 361.153 135.229L360.68 134.142C360.609 133.95 360.7 133.806 360.953 133.712C361.166 133.633 361.36 133.706 361.535 133.929C362.366 135.269 363.291 136.471 364.308 137.534C364.398 137.777 364.352 137.933 364.169 138C362.948 138.407 361.968 138.748 361.229 139.022Z" fill="#565555"/>
<path d="M365.374 156.101L363.206 156.715L361.099 149.275L363.267 148.661L365.374 156.101Z" fill="#565555"/>
</svg>
